<?xml version="1.0" encoding="iso-8859-1"?>
<!-- Generator: Adobe Illustrator 19.0.0, SVG Export Plug-In . SVG Version: 6.00 Build 0)  -->
<svg version="1.1" id="Layer_1" xmlns="http://www.w3.org/2000/svg" xmlns:xlink="http://www.w3.org/1999/xlink" x="0px" y="0px"
	 viewBox="0 0 512 512" style="enable-background:new 0 0 512 512;" xml:space="preserve">
<g>
	<path style="fill:#2F5E88;" d="M503.83,462.979H8.17c-4.512,0-8.17,3.657-8.17,8.17c0,4.513,3.658,8.17,8.17,8.17h117.106v24.511
		c0,4.513,3.658,8.17,8.17,8.17s8.17-3.657,8.17-8.17v-24.511h76.255v24.511c0,4.513,3.658,8.17,8.17,8.17
		c4.512,0,8.17-3.657,8.17-8.17v-24.511h76.255v24.511c0,4.513,3.657,8.17,8.17,8.17c4.513,0,8.17-3.657,8.17-8.17v-24.511h76.255
		v24.511c0,4.513,3.657,8.17,8.17,8.17c4.513,0,8.17-3.657,8.17-8.17v-24.511h76.255v24.511c0,4.513,3.657,8.17,8.17,8.17
		s8.17-3.657,8.17-8.17v-32.681C512,466.636,508.343,462.979,503.83,462.979z"/>
	<path style="fill:#2F5E88;" d="M40.851,0H8.17C3.658,0,0,3.657,0,8.17s3.658,8.17,8.17,8.17h24.511v76.255H8.17
		c-4.512,0-8.17,3.657-8.17,8.17s3.658,8.17,8.17,8.17h24.511v76.255H8.17c-4.512,0-8.17,3.657-8.17,8.17s3.658,8.17,8.17,8.17
		h24.511v76.255H8.17c-4.512,0-8.17,3.657-8.17,8.17c0,4.513,3.658,8.17,8.17,8.17h24.511v76.255H8.17
		c-4.512,0-8.17,3.657-8.17,8.17c0,4.513,3.658,8.17,8.17,8.17h24.511V503.83c0,4.513,3.658,8.17,8.17,8.17s8.17-3.657,8.17-8.17
		V8.17C49.021,3.657,45.363,0,40.851,0z"/>
</g>
<circle style="fill:#E5FAFC;" cx="190.638" cy="321.362" r="81.702"/>
<g>
	<circle style="fill:#5195AF;" cx="190.638" cy="362.213" r="8.17"/>
	<circle style="fill:#5195AF;" cx="190.638" cy="321.362" r="8.17"/>
	<circle style="fill:#5195AF;" cx="226.021" cy="341.787" r="8.17"/>
	<circle style="fill:#5195AF;" cx="226.021" cy="300.936" r="8.17"/>
	<circle style="fill:#5195AF;" cx="190.638" cy="280.511" r="8.17"/>
	<circle style="fill:#5195AF;" cx="155.256" cy="300.936" r="8.17"/>
	<circle style="fill:#5195AF;" cx="155.256" cy="341.787" r="8.17"/>
</g>
<circle style="fill:#D0FBFD;" cx="381.277" cy="130.723" r="122.553"/>
<g>
	<circle style="fill:#25BBCC;" cx="381.277" cy="212.426" r="8.17"/>
	<circle style="fill:#25BBCC;" cx="422.128" cy="201.477" r="8.17"/>
	<circle style="fill:#25BBCC;" cx="452.031" cy="171.574" r="8.17"/>
	<circle style="fill:#25BBCC;" cx="462.979" cy="130.723" r="8.17"/>
	<circle style="fill:#25BBCC;" cx="452.031" cy="89.872" r="8.17"/>
	<circle style="fill:#25BBCC;" cx="422.128" cy="59.969" r="8.17"/>
	<circle style="fill:#25BBCC;" cx="381.277" cy="49.021" r="8.17"/>
	<circle style="fill:#25BBCC;" cx="340.426" cy="59.969" r="8.17"/>
	<circle style="fill:#25BBCC;" cx="310.523" cy="89.872" r="8.17"/>
	<circle style="fill:#25BBCC;" cx="299.574" cy="130.723" r="8.17"/>
	<circle style="fill:#25BBCC;" cx="310.523" cy="171.574" r="8.17"/>
	<circle style="fill:#25BBCC;" cx="340.426" cy="201.477" r="8.17"/>
	<circle style="fill:#25BBCC;" cx="381.277" cy="171.574" r="8.17"/>
	<circle style="fill:#25BBCC;" cx="381.277" cy="130.723" r="8.17"/>
	<circle style="fill:#25BBCC;" cx="416.659" cy="151.149" r="8.17"/>
	<circle style="fill:#25BBCC;" cx="416.659" cy="110.298" r="8.17"/>
	<circle style="fill:#25BBCC;" cx="381.277" cy="89.872" r="8.17"/>
	<circle style="fill:#25BBCC;" cx="345.894" cy="110.298" r="8.17"/>
	<circle style="fill:#25BBCC;" cx="345.894" cy="151.149" r="8.17"/>
</g>
<g>
</g>
<g>
</g>
<g>
</g>
<g>
</g>
<g>
</g>
<g>
</g>
<g>
</g>
<g>
</g>
<g>
</g>
<g>
</g>
<g>
</g>
<g>
</g>
<g>
</g>
<g>
</g>
<g>
</g>
</svg>
