<?xml version="1.0" encoding="iso-8859-1"?>
<!-- Generator: Adobe Illustrator 19.0.0, SVG Export Plug-In . SVG Version: 6.00 Build 0)  -->
<svg version="1.1" id="Layer_1" xmlns="http://www.w3.org/2000/svg" xmlns:xlink="http://www.w3.org/1999/xlink" x="0px" y="0px"
	 viewBox="0 0 512.005 512.005" style="enable-background:new 0 0 512.005 512.005;" xml:space="preserve">
<polygon style="fill:#367596;" points="198.928,313.08 129.743,350.437 185.441,374.308 222.798,336.952 "/>
<g>
	<polygon style="fill:#88ACB5;" points="198.928,313.08 175.056,289.209 137.699,326.566 145.657,366.352 	"/>
	<polygon style="fill:#88ACB5;" points="105.872,374.308 161.571,398.179 185.441,374.308 161.571,350.437 	"/>
</g>
<polygon style="fill:#B7D9DD;" points="161.571,350.437 137.699,326.566 113.829,350.437 121.786,390.222 "/>
<polygon style="fill:#27467A;" points="23.876,488.132 47.746,512.003 161.571,398.179 137.699,374.308 72.831,423.263 "/>
<rect x="-11.638" y="402.405" transform="matrix(-0.7071 0.7071 -0.7071 -0.7071 414.0067 667.0809)" style="fill:#2F5E88;" width="160.969" height="33.758"/>
<path style="fill:#88ACB5;" d="M320.708,0.003L286.95,191.299l33.758,191.297c105.65,0,191.297-85.647,191.297-191.297
	S426.358,0.003,320.708,0.003z"/>
<path style="fill:#B7D9DD;" d="M129.412,191.299c0,105.65,85.647,191.297,191.297,191.297V0.003
	C215.059,0.003,129.412,85.649,129.412,191.299z"/>
<path style="fill:#D0FBFD;" d="M320.708,39.387v303.824c83.898,0,151.912-68.014,151.912-151.912S404.608,39.387,320.708,39.387z"/>
<path style="fill:#FFFFFF;" d="M438.862,191.299c0-83.898-52.899-151.912-118.154-151.912c-83.898,0-151.912,68.014-151.912,151.912
	s68.014,151.912,151.912,151.912C385.963,343.211,438.862,275.198,438.862,191.299z"/>
<g>
	<path style="fill:#88ACB5;" d="M388.225,188.473H253.192c-4.661,0-8.44-3.778-8.44-8.44s3.779-8.44,8.44-8.44h135.033
		c4.662,0,8.44,3.778,8.44,8.44S392.887,188.473,388.225,188.473z"/>
	<path style="fill:#88ACB5;" d="M388.225,222.231H253.192c-4.661,0-8.44-3.778-8.44-8.44s3.779-8.44,8.44-8.44h135.033
		c4.662,0,8.44,3.778,8.44,8.44S392.887,222.231,388.225,222.231z"/>
	<path style="fill:#88ACB5;" d="M388.225,255.989H253.192c-4.661,0-8.44-3.778-8.44-8.44s3.779-8.44,8.44-8.44h135.033
		c4.662,0,8.44,3.778,8.44,8.44S392.887,255.989,388.225,255.989z"/>
	<path style="fill:#88ACB5;" d="M388.225,154.714H253.192c-4.661,0-8.44-3.778-8.44-8.44c0-4.662,3.779-8.44,8.44-8.44h135.033
		c4.662,0,8.44,3.778,8.44,8.44S392.887,154.714,388.225,154.714z"/>
</g>
<g>
</g>
<g>
</g>
<g>
</g>
<g>
</g>
<g>
</g>
<g>
</g>
<g>
</g>
<g>
</g>
<g>
</g>
<g>
</g>
<g>
</g>
<g>
</g>
<g>
</g>
<g>
</g>
<g>
</g>
</svg>
